<svg width="102" height="104" viewBox="0 0 102 104" fill="none" xmlns="http://www.w3.org/2000/svg">
<ellipse cx="51" cy="52" rx="51" ry="52" fill="#EFEFEF"/>
<path d="M51.704 62.344C52.376 62.344 53 62.616 53.576 63.16C54.152 63.736 54.44 64.392 54.44 65.128C54.44 65.864 54.104 66.552 53.432 67.192C52.792 67.864 51.96 68.456 50.936 68.968C49.912 69.48 48.84 69.88 47.72 70.168C46.632 70.456 45.64 70.6 44.744 70.6C42.76 70.6 41.176 70.408 39.992 70.024C38.808 69.672 37.832 69.256 37.064 68.776C36.296 68.328 35.576 67.912 34.904 67.528C34.232 67.176 33.416 67 32.456 67C31.848 67 31.352 67.096 30.968 67.288C30.616 67.512 30.216 67.72 29.768 67.912C29.352 68.136 28.76 68.248 27.992 68.248C27.192 68.248 26.52 67.944 25.976 67.336C25.432 66.728 25.16 66.072 25.16 65.368C25.16 64.12 25.72 63.288 26.84 62.872L36.776 59.176L41.096 60.232L31.784 63.688L34.52 62.104C35.64 62.104 36.616 62.264 37.448 62.584C38.312 62.936 39.128 63.32 39.896 63.736C40.664 64.152 41.448 64.52 42.248 64.84C43.08 65.192 44.024 65.368 45.08 65.368C45.944 65.368 46.664 65.224 47.24 64.936C47.848 64.648 48.376 64.328 48.824 63.976C49.368 63.56 49.848 63.176 50.264 62.824C50.712 62.504 51.192 62.344 51.704 62.344ZM51.512 44.2C51.512 46.6 51.112 48.84 50.312 50.92C49.512 53 48.376 54.84 46.904 56.44C45.464 58.008 43.736 59.24 41.72 60.136C39.736 61.032 37.56 61.48 35.192 61.48C32.824 61.48 30.648 61.032 28.664 60.136C26.68 59.24 24.952 58.008 23.48 56.44C22.04 54.84 20.92 53 20.12 50.92C19.32 48.84 18.92 46.6 18.92 44.2C18.92 41.8 19.32 39.56 20.12 37.48C20.92 35.4 22.04 33.576 23.48 32.008C24.952 30.408 26.68 29.16 28.664 28.264C30.648 27.368 32.824 26.92 35.192 26.92C37.56 26.92 39.736 27.368 41.72 28.264C43.736 29.16 45.464 30.408 46.904 32.008C48.376 33.576 49.512 35.4 50.312 37.48C51.112 39.56 51.512 41.8 51.512 44.2ZM45.272 44.2C45.272 42.056 44.84 40.12 43.976 38.392C43.112 36.632 41.928 35.24 40.424 34.216C38.92 33.192 37.176 32.68 35.192 32.68C33.208 32.68 31.464 33.192 29.96 34.216C28.456 35.24 27.272 36.616 26.408 38.344C25.576 40.072 25.16 42.024 25.16 44.2C25.16 46.344 25.576 48.296 26.408 50.056C27.272 51.784 28.456 53.16 29.96 54.184C31.464 55.208 33.208 55.72 35.192 55.72C37.176 55.72 38.92 55.208 40.424 54.184C41.928 53.16 43.112 51.784 43.976 50.056C44.84 48.296 45.272 46.344 45.272 44.2Z" fill="black"/>
<path d="M68.976 79C68.08 79 67.344 78.728 66.768 78.184C66.192 77.608 65.904 76.904 65.904 76.072V48.232H72.144V76.072C72.144 76.904 71.84 77.608 71.232 78.184C70.656 78.728 69.904 79 68.976 79ZM58.368 50.92C57.536 50.92 56.832 50.664 56.256 50.152C55.712 49.64 55.44 48.968 55.44 48.136C55.44 47.304 55.712 46.648 56.256 46.168C56.832 45.656 57.536 45.4 58.368 45.4H79.68C80.512 45.4 81.2 45.656 81.744 46.168C82.32 46.68 82.608 47.352 82.608 48.184C82.608 49.016 82.32 49.688 81.744 50.2C81.2 50.68 80.512 50.92 79.68 50.92H58.368Z" fill="black"/>
</svg>
