<svg width="181" height="35" viewBox="0 0 181 35" fill="none" xmlns="http://www.w3.org/2000/svg">
<path d="M25.028 28.008C25.532 28.008 26 28.212 26.432 28.62C26.864 29.052 27.08 29.544 27.08 30.096C27.08 30.648 26.828 31.164 26.324 31.644C25.844 32.148 25.22 32.592 24.452 32.976C23.684 33.36 22.88 33.66 22.04 33.876C21.224 34.092 20.48 34.2 19.808 34.2C18.32 34.2 17.132 34.056 16.244 33.768C15.356 33.504 14.624 33.192 14.048 32.832C13.472 32.496 12.932 32.184 12.428 31.896C11.924 31.632 11.312 31.5 10.592 31.5C10.136 31.5 9.764 31.572 9.476 31.716C9.212 31.884 8.912 32.04 8.576 32.184C8.264 32.352 7.82 32.436 7.244 32.436C6.644 32.436 6.14 32.208 5.732 31.752C5.324 31.296 5.12 30.804 5.12 30.276C5.12 29.34 5.54 28.716 6.38 28.404L13.832 25.632L17.072 26.424L10.088 29.016L12.14 27.828C12.98 27.828 13.712 27.948 14.336 28.188C14.984 28.452 15.596 28.74 16.172 29.052C16.748 29.364 17.336 29.64 17.936 29.88C18.56 30.144 19.268 30.276 20.06 30.276C20.708 30.276 21.248 30.168 21.68 29.952C22.136 29.736 22.532 29.496 22.868 29.232C23.276 28.92 23.636 28.632 23.948 28.368C24.284 28.128 24.644 28.008 25.028 28.008ZM24.884 14.4C24.884 16.2 24.584 17.88 23.984 19.44C23.384 21 22.532 22.38 21.428 23.58C20.348 24.756 19.052 25.68 17.54 26.352C16.052 27.024 14.42 27.36 12.644 27.36C10.868 27.36 9.236 27.024 7.748 26.352C6.26 25.68 4.964 24.756 3.86 23.58C2.78 22.38 1.94 21 1.34 19.44C0.74 17.88 0.44 16.2 0.44 14.4C0.44 12.6 0.74 10.92 1.34 9.36C1.94 7.8 2.78 6.432 3.86 5.256C4.964 4.056 6.26 3.12 7.748 2.448C9.236 1.776 10.868 1.44 12.644 1.44C14.42 1.44 16.052 1.776 17.54 2.448C19.052 3.12 20.348 4.056 21.428 5.256C22.532 6.432 23.384 7.8 23.984 9.36C24.584 10.92 24.884 12.6 24.884 14.4ZM20.204 14.4C20.204 12.792 19.88 11.34 19.232 10.044C18.584 8.724 17.696 7.68 16.568 6.912C15.44 6.144 14.132 5.76 12.644 5.76C11.156 5.76 9.848 6.144 8.72 6.912C7.592 7.68 6.704 8.712 6.056 10.008C5.432 11.304 5.12 12.768 5.12 14.4C5.12 16.008 5.432 17.472 6.056 18.792C6.704 20.088 7.592 21.12 8.72 21.888C9.848 22.656 11.156 23.04 12.644 23.04C14.132 23.04 15.44 22.656 16.568 21.888C17.696 21.12 18.584 20.088 19.232 18.792C19.88 17.472 20.204 16.008 20.204 14.4ZM42.8078 7.74C43.4318 7.74 43.9478 7.956 44.3558 8.388C44.7638 8.796 44.9678 9.312 44.9678 9.936V19.08C44.9678 21.624 44.2598 23.64 42.8438 25.128C41.4278 26.616 39.3878 27.36 36.7238 27.36C34.0598 27.36 32.0198 26.616 30.6038 25.128C29.2118 23.64 28.5158 21.624 28.5158 19.08V9.936C28.5158 9.312 28.7198 8.796 29.1278 8.388C29.5358 7.956 30.0518 7.74 30.6758 7.74C31.2998 7.74 31.8158 7.956 32.2238 8.388C32.6318 8.796 32.8358 9.312 32.8358 9.936V19.08C32.8358 20.544 33.1598 21.636 33.8078 22.356C34.4558 23.052 35.4278 23.4 36.7238 23.4C38.0438 23.4 39.0278 23.052 39.6758 22.356C40.3238 21.636 40.6478 20.544 40.6478 19.08V9.936C40.6478 9.312 40.8518 8.796 41.2598 8.388C41.6678 7.956 42.1838 7.74 42.8078 7.74ZM53.7127 24.804C53.7127 25.428 53.5087 25.956 53.1007 26.388C52.6927 26.796 52.1767 27 51.5527 27C50.9287 27 50.4127 26.796 50.0047 26.388C49.5967 25.956 49.3927 25.428 49.3927 24.804V9.936C49.3927 9.312 49.5967 8.796 50.0047 8.388C50.4127 7.956 50.9287 7.74 51.5527 7.74C52.1767 7.74 52.6927 7.956 53.1007 8.388C53.5087 8.796 53.7127 9.312 53.7127 9.936V24.804ZM51.5167 5.4C50.7007 5.4 50.1247 5.268 49.7887 5.004C49.4527 4.74 49.2847 4.272 49.2847 3.6V2.916C49.2847 2.22 49.4647 1.752 49.8247 1.512C50.2087 1.248 50.7847 1.116 51.5527 1.116C52.3927 1.116 52.9807 1.248 53.3167 1.512C53.6527 1.776 53.8207 2.244 53.8207 2.916V3.6C53.8207 4.296 53.6407 4.776 53.2807 5.04C52.9207 5.28 52.3327 5.4 51.5167 5.4ZM66.7205 7.38C68.0885 7.38 69.2765 7.524 70.2845 7.812C71.3165 8.1 72.1085 8.508 72.6605 9.036C73.2365 9.54 73.5245 10.152 73.5245 10.872C73.5245 11.352 73.3805 11.808 73.0925 12.24C72.8045 12.648 72.3845 12.852 71.8325 12.852C71.4485 12.852 71.1245 12.804 70.8605 12.708C70.6205 12.588 70.4045 12.444 70.2125 12.276C70.0205 12.108 69.7925 11.952 69.5285 11.808C69.2885 11.664 68.9165 11.556 68.4125 11.484C67.9325 11.388 67.5725 11.34 67.3325 11.34C66.1085 11.34 65.0645 11.604 64.2005 12.132C63.3605 12.66 62.7125 13.38 62.2565 14.292C61.8005 15.18 61.5725 16.212 61.5725 17.388C61.5725 18.54 61.8005 19.572 62.2565 20.484C62.7365 21.372 63.3845 22.08 64.2005 22.608C65.0405 23.136 66.0005 23.4 67.0805 23.4C67.6805 23.4 68.1965 23.364 68.6285 23.292C69.0605 23.22 69.4205 23.112 69.7085 22.968C70.0445 22.776 70.3445 22.572 70.6085 22.356C70.8725 22.14 71.2685 22.032 71.7965 22.032C72.4205 22.032 72.9005 22.236 73.2365 22.644C73.5725 23.028 73.7405 23.508 73.7405 24.084C73.7405 24.684 73.4045 25.236 72.7325 25.74C72.0605 26.22 71.1725 26.616 70.0685 26.928C68.9885 27.216 67.8125 27.36 66.5405 27.36C64.6445 27.36 63.0005 26.928 61.6085 26.064C60.2165 25.176 59.1365 23.976 58.3685 22.464C57.6245 20.952 57.2525 19.26 57.2525 17.388C57.2525 15.42 57.6485 13.692 58.4405 12.204C59.2565 10.692 60.3725 9.516 61.7885 8.676C63.2285 7.812 64.8725 7.38 66.7205 7.38ZM79.3756 27C78.7516 27 78.2356 26.796 77.8276 26.388C77.4196 25.956 77.2156 25.428 77.2156 24.804V2.556C77.2156 1.932 77.4196 1.416 77.8276 1.008C78.2356 0.575999 78.7516 0.36 79.3756 0.36C79.9996 0.36 80.5156 0.575999 80.9236 1.008C81.3316 1.416 81.5356 1.932 81.5356 2.556V24.804C81.5356 25.428 81.3316 25.956 80.9236 26.388C80.5156 26.796 79.9996 27 79.3756 27ZM90.8236 7.74C91.3756 7.74 91.8556 7.968 92.2636 8.424C92.6716 8.88 92.8756 9.324 92.8756 9.756C92.8756 10.332 92.5876 10.872 92.0116 11.376L81.1756 21.348L80.9956 16.38L89.2396 8.424C89.6956 7.968 90.2236 7.74 90.8236 7.74ZM91.3636 26.964C90.7396 26.964 90.2116 26.724 89.7796 26.244L83.1196 19.188L86.3956 16.164L92.8756 23.22C93.3316 23.7 93.5596 24.24 93.5596 24.84C93.5596 25.464 93.3076 25.98 92.8036 26.388C92.3236 26.772 91.8436 26.964 91.3636 26.964ZM106.244 27C105.572 27 105.02 26.796 104.588 26.388C104.156 25.956 103.94 25.428 103.94 24.804V3.924H108.62V24.804C108.62 25.428 108.392 25.956 107.936 26.388C107.504 26.796 106.94 27 106.244 27ZM98.2877 5.94C97.6637 5.94 97.1357 5.748 96.7037 5.364C96.2957 4.98 96.0917 4.476 96.0917 3.852C96.0917 3.228 96.2957 2.736 96.7037 2.376C97.1357 1.992 97.6637 1.8 98.2877 1.8H114.272C114.896 1.8 115.412 1.992 115.82 2.376C116.252 2.76 116.468 3.264 116.468 3.888C116.468 4.512 116.252 5.016 115.82 5.4C115.412 5.76 114.896 5.94 114.272 5.94H98.2877ZM133.827 7.74C134.451 7.74 134.967 7.956 135.375 8.388C135.783 8.796 135.987 9.312 135.987 9.936V25.236C135.987 27.444 135.567 29.196 134.727 30.492C133.911 31.812 132.807 32.76 131.415 33.336C130.023 33.912 128.463 34.2 126.735 34.2C125.967 34.2 125.151 34.14 124.287 34.02C123.423 33.9 122.715 33.72 122.163 33.48C121.443 33.168 120.939 32.772 120.651 32.292C120.387 31.836 120.339 31.344 120.507 30.816C120.723 30.12 121.071 29.64 121.551 29.376C122.031 29.136 122.535 29.112 123.063 29.304C123.447 29.424 123.951 29.604 124.575 29.844C125.199 30.108 125.919 30.24 126.735 30.24C127.839 30.24 128.751 30.084 129.471 29.772C130.215 29.484 130.767 28.98 131.127 28.26C131.511 27.564 131.703 26.604 131.703 25.38V22.968L132.459 23.832C132.051 24.624 131.535 25.284 130.911 25.812C130.311 26.316 129.591 26.7 128.751 26.964C127.911 27.228 126.951 27.36 125.871 27.36C124.599 27.36 123.483 27.072 122.523 26.496C121.587 25.896 120.855 25.08 120.327 24.048C119.799 22.992 119.535 21.792 119.535 20.448V9.936C119.535 9.312 119.739 8.796 120.147 8.388C120.555 7.956 121.071 7.74 121.695 7.74C122.319 7.74 122.835 7.956 123.243 8.388C123.651 8.796 123.855 9.312 123.855 9.936V19.152C123.855 20.712 124.191 21.816 124.863 22.464C125.559 23.088 126.519 23.4 127.743 23.4C128.583 23.4 129.291 23.244 129.867 22.932C130.443 22.596 130.887 22.116 131.199 21.492C131.511 20.844 131.667 20.064 131.667 19.152V9.936C131.667 9.312 131.871 8.796 132.279 8.388C132.687 7.956 133.203 7.74 133.827 7.74ZM150.636 7.38C152.316 7.38 153.816 7.812 155.136 8.676C156.48 9.516 157.536 10.68 158.304 12.168C159.096 13.656 159.492 15.384 159.492 17.352C159.492 19.32 159.096 21.06 158.304 22.572C157.536 24.06 156.492 25.236 155.172 26.1C153.876 26.94 152.412 27.36 150.78 27.36C149.82 27.36 148.92 27.204 148.08 26.892C147.24 26.58 146.496 26.184 145.848 25.704C145.224 25.224 144.732 24.744 144.372 24.264C144.036 23.76 143.868 23.34 143.868 23.004L144.984 22.536V32.004C144.984 32.628 144.78 33.144 144.372 33.552C143.964 33.984 143.448 34.2 142.824 34.2C142.2 34.2 141.684 33.996 141.276 33.588C140.868 33.18 140.664 32.652 140.664 32.004V9.936C140.664 9.312 140.868 8.796 141.276 8.388C141.684 7.956 142.2 7.74 142.824 7.74C143.448 7.74 143.964 7.956 144.372 8.388C144.78 8.796 144.984 9.312 144.984 9.936V11.7L144.372 11.376C144.372 11.064 144.54 10.692 144.876 10.26C145.212 9.804 145.668 9.36 146.244 8.928C146.82 8.472 147.48 8.1 148.224 7.812C148.992 7.524 149.796 7.38 150.636 7.38ZM150.096 11.34C149.04 11.34 148.116 11.604 147.324 12.132C146.532 12.66 145.908 13.38 145.452 14.292C145.02 15.18 144.804 16.2 144.804 17.352C144.804 18.48 145.02 19.512 145.452 20.448C145.908 21.36 146.532 22.08 147.324 22.608C148.116 23.136 149.04 23.4 150.096 23.4C151.152 23.4 152.064 23.136 152.832 22.608C153.624 22.08 154.236 21.36 154.668 20.448C155.124 19.512 155.352 18.48 155.352 17.352C155.352 16.2 155.124 15.18 154.668 14.292C154.236 13.38 153.624 12.66 152.832 12.132C152.064 11.604 151.152 11.34 150.096 11.34ZM172.342 27.36C170.302 27.36 168.526 26.94 167.014 26.1C165.526 25.236 164.374 24.072 163.558 22.608C162.766 21.144 162.37 19.488 162.37 17.64C162.37 15.48 162.802 13.644 163.666 12.132C164.554 10.596 165.706 9.42 167.122 8.604C168.538 7.788 170.038 7.38 171.622 7.38C172.846 7.38 173.998 7.632 175.078 8.136C176.182 8.64 177.154 9.336 177.994 10.224C178.834 11.088 179.494 12.096 179.974 13.248C180.478 14.4 180.73 15.624 180.73 16.92C180.706 17.496 180.478 17.964 180.046 18.324C179.614 18.684 179.11 18.864 178.534 18.864H164.782L163.702 15.264H176.914L176.122 15.984V15.012C176.074 14.316 175.822 13.692 175.366 13.14C174.934 12.588 174.382 12.156 173.71 11.844C173.062 11.508 172.366 11.34 171.622 11.34C170.902 11.34 170.23 11.436 169.606 11.628C168.982 11.82 168.442 12.144 167.986 12.6C167.53 13.056 167.17 13.668 166.906 14.436C166.642 15.204 166.51 16.176 166.51 17.352C166.51 18.648 166.774 19.752 167.302 20.664C167.854 21.552 168.55 22.236 169.39 22.716C170.254 23.172 171.166 23.4 172.126 23.4C173.014 23.4 173.722 23.328 174.25 23.184C174.778 23.04 175.198 22.872 175.51 22.68C175.846 22.464 176.146 22.284 176.41 22.14C176.842 21.924 177.25 21.816 177.634 21.816C178.162 21.816 178.594 21.996 178.93 22.356C179.29 22.716 179.47 23.136 179.47 23.616C179.47 24.264 179.134 24.852 178.462 25.38C177.838 25.908 176.962 26.376 175.834 26.784C174.706 27.168 173.542 27.36 172.342 27.36Z" fill="white"/>
</svg>
